<?xml version="1.0" standalone="no"?>
<!DOCTYPE svg PUBLIC "-//W3C//DTD SVG 20010904//EN"
 "http://www.w3.org/TR/2001/REC-SVG-20010904/DTD/svg10.dtd">
<svg version="1.0" xmlns="http://www.w3.org/2000/svg"
 width="200" height="70" viewBox="0 0 1024.000000 1024.000000"
 preserveAspectRatio="xMidYMid meet">

<g transform="translate(0.000000,1024.000000) scale(0.100000,-0.100000)"
fill="#000000" stroke="none">
<path d="M4795 9199 c-142 -10 -306 -33 -477 -66 -137 -27 -161 -39 -120 -62
13 -8 7 -10 -29 -11 -25 0 -50 5 -56 11 -9 9 -29 7 -80 -5 -121 -30 -374 -119
-369 -131 2 -6 -8 -10 -23 -10 -23 0 -26 -4 -26 -38 0 -20 -5 -37 -10 -37 -7
0 -9 15 -7 35 4 33 3 35 -19 27 -16 -6 -25 -19 -27 -36 -2 -17 -9 -26 -20 -25
-11 0 -12 3 -4 6 6 2 12 11 12 19 0 16 -18 18 -39 5 -8 -5 -10 -14 -6 -21 6
-10 1 -11 -17 -7 -28 7 -181 -63 -373 -171 -92 -52 -403 -255 -450 -294 -11
-9 -47 -38 -80 -64 -220 -175 -472 -425 -638 -634 -38 -47 -74 -92 -80 -100
-18 -22 -151 -210 -172 -243 l-18 -29 36 7 c124 24 221 -106 157 -211 -21 -34
-90 -74 -128 -74 -54 0 -120 47 -143 102 l-12 30 -16 -28 c-8 -16 -15 -45 -16
-64 0 -28 -4 -35 -18 -34 -13 2 -29 -19 -58 -79 -21 -44 -37 -83 -33 -86 3 -3
9 1 13 8 5 8 11 9 15 3 3 -6 -8 -15 -25 -21 -18 -6 -29 -16 -27 -23 3 -7 -1
-17 -8 -23 -20 -16 -103 -218 -160 -390 -91 -272 -143 -500 -186 -800 -20
-142 -22 -201 -22 -515 0 -313 2 -374 22 -519 23 -168 68 -398 103 -531 73
-273 246 -720 282 -728 8 -2 17 -20 21 -43 6 -41 13 -44 74 -39 17 1 22 -4 22
-24 0 -22 -4 -26 -30 -26 -16 0 -30 -2 -30 -5 0 -18 241 -408 259 -420 5 -3
11 20 13 50 1 31 -1 57 -7 59 -5 3 -2 5 8 5 13 1 17 -4 13 -16 -3 -10 -6 -43
-7 -74 -2 -55 -2 -57 77 -160 312 -412 763 -816 1174 -1051 19 -11 69 -40 111
-64 99 -57 319 -162 450 -215 170 -68 329 -119 330 -106 0 7 2 33 2 60 1 30 6
47 14 47 7 0 13 5 13 10 0 6 5 10 12 10 6 0 9 -3 5 -6 -3 -4 0 -12 7 -20 9 -8
14 -35 14 -69 -1 -30 2 -58 5 -62 4 -3 27 -7 52 -8 29 -1 42 2 35 9 -16 16 22
35 70 35 l45 0 -40 -34 c-43 -37 -44 -35 39 -55 304 -70 587 -102 926 -102
297 0 523 21 790 74 126 24 135 28 136 65 1 15 2 34 3 41 1 6 14 12 31 12 30
0 37 -13 31 -58 -2 -14 18 -16 53 -2 24 9 24 10 9 40 -18 37 -12 67 21 103 27
29 96 51 129 42 51 -15 77 -28 77 -41 0 -8 -4 -14 -10 -14 -5 0 -10 -7 -10
-15 0 -12 -4 -13 -19 -5 -27 14 -94 13 -109 -2 -18 -18 -14 -56 7 -67 25 -14
241 53 241 75 0 7 6 14 13 15 6 0 28 2 47 4 76 5 436 176 673 319 238 143 494
336 676 511 241 231 488 515 537 617 15 32 15 37 0 66 -9 17 -16 37 -16 44 1
7 8 -3 16 -22 15 -34 16 -34 30 -15 8 11 13 29 10 39 -3 13 -2 16 6 8 7 -7 7
-19 0 -41 -6 -17 -9 -31 -7 -31 5 0 115 167 121 185 3 6 -18 10 -56 10 -54 1
-63 4 -95 35 -62 60 -69 130 -18 191 50 59 114 74 180 42 19 -9 40 -27 46 -40
5 -12 14 -23 18 -23 4 0 11 -12 16 -27 9 -25 14 -16 75 108 225 456 342 837
410 1333 20 141 22 204 22 516 0 313 -2 374 -22 515 -41 295 -95 528 -186 800
-45 136 -130 348 -165 412 -5 10 -33 65 -62 123 -45 92 -67 134 -77 150 -1 2
-13 -7 -25 -21 -27 -31 -78 -59 -109 -59 -44 0 -103 30 -125 65 -33 50 -37 80
-19 126 21 52 61 87 108 95 34 6 36 8 26 28 -10 20 -139 204 -165 236 -6 8
-42 53 -80 100 -166 209 -418 459 -638 634 -33 26 -69 55 -80 64 -47 39 -358
242 -451 294 -55 31 -160 86 -234 122 -124 61 -134 64 -147 48 -13 -15 -14
-15 -10 -1 4 11 -7 23 -34 38 l-39 22 -1 -33 -2 -33 -4 30 c-4 28 -26 55 -46
55 -5 0 -7 -18 -5 -40 2 -22 0 -40 -4 -40 -5 0 -8 18 -8 40 0 30 -5 42 -22 52
-33 17 -196 74 -313 107 -149 43 -155 44 -155 26 0 -10 -10 -15 -31 -15 -24 0
-30 4 -25 16 3 8 2 12 -4 9 -6 -3 -10 0 -10 8 0 29 -331 86 -615 107 -160 11
-468 11 -630 -1z m1633 -232 c6 0 12 -4 12 -8 0 -4 -16 -5 -35 -2 -40 6 -65
-9 -65 -40 0 -11 -3 -18 -6 -14 -4 3 -4 17 0 30 6 26 43 49 66 40 8 -3 21 -6
28 -6z m-358 -16 c0 -14 6 -18 23 -15 22 5 22 4 -1 -6 -27 -12 -27 -47 1 -64
19 -12 54 4 50 23 -2 6 2 11 7 11 15 0 12 -16 -6 -34 -16 -17 -52 -21 -69 -8
-6 4 -12 27 -14 52 -2 25 -5 48 -8 52 -2 5 1 8 6 8 6 0 11 -9 11 -19z m-2270
-33 c0 -19 -2 -20 -10 -8 -13 19 -13 30 0 30 6 0 10 -10 10 -22z m55 9 c-27
-20 -13 -67 20 -67 13 0 28 7 33 16 6 11 11 13 16 5 4 -6 3 -11 -2 -11 -6 0
-8 -8 -5 -19 3 -10 0 -22 -5 -25 -6 -3 -8 2 -5 13 4 15 0 18 -21 14 -32 -6
-56 12 -56 41 0 23 17 46 34 46 5 0 2 -6 -9 -13z m77 6 c-6 -2 -10 -9 -6 -14
8 -14 -6 -10 -22 6 -14 13 -12 15 13 14 15 0 22 -3 15 -6z m106 -5 c24 -24 13
-38 -29 -38 -28 0 -39 -4 -36 -12 2 -7 18 -13 35 -13 16 0 28 -3 25 -7 -14
-25 -82 8 -78 37 7 43 54 62 83 33z m48 -8 c0 -11 -4 -20 -8 -20 -10 0 -11 24
-1 33 9 9 9 10 9 -13z m2109 10 c-3 -5 0 -22 8 -37 l14 -27 14 37 c7 20 16 37
20 37 8 0 -17 -69 -30 -83 -5 -4 -14 6 -21 23 -7 18 -19 38 -27 46 -12 12 -11
14 7 14 12 0 18 -4 15 -10z m375 -26 c0 -10 -12 -14 -41 -14 -28 0 -39 -4 -36
-12 2 -7 18 -13 35 -13 16 0 28 -3 25 -7 -7 -12 -48 -9 -61 4 -24 24 -13 38
29 38 33 0 40 3 35 16 -3 8 -2 12 4 9 6 -3 10 -13 10 -21z m-2857 -4 c-3 -12
-8 -19 -11 -16 -5 6 5 36 12 36 2 0 2 -9 -1 -20z m2737 -8 c0 -9 -9 -23 -20
-30 -11 -7 -20 -8 -20 -3 0 5 7 11 15 15 22 8 18 24 -7 29 -20 4 -19 4 5 6 20
1 27 -4 27 -17z m-2766 -34 c7 -5 5 -8 -6 -8 -13 0 -18 7 -17 28 1 21 2 22 6
7 3 -11 10 -23 17 -27z m441 32 c3 -6 -1 -7 -9 -4 -18 7 -21 14 -7 14 6 0 13
-4 16 -10z m-325 -22 c0 -16 -3 -19 -11 -11 -6 6 -8 16 -5 22 11 17 16 13 16
-11z m2582 -16 c-8 -2 -24 5 -35 17 l-21 20 36 -17 c21 -10 29 -18 20 -20z
m-2259 6 c-2 -5 -15 -8 -29 -8 -13 0 -24 3 -24 8 0 4 13 7 29 7 16 0 27 -3 24
-7z m-360 -5 c-7 -2 -19 -2 -25 0 -7 3 -2 5 12 5 14 0 19 -2 13 -5z m2990 -30
c-7 -2 -19 -2 -25 0 -7 3 -2 5 12 5 14 0 19 -2 13 -5z m-1415 -1198 c191 -28
339 -73 487 -147 469 -236 796 -690 865 -1204 17 -122 8 -432 -15 -534 -22
-100 -70 -246 -105 -325 -23 -50 -26 -65 -15 -65 10 0 15 -11 15 -35 l0 -35
50 0 c49 0 51 -1 47 -27 -3 -26 -8 -28 -50 -31 l-47 -3 0 -68 c0 -73 10 -92
53 -96 12 -1 25 -3 30 -4 4 0 7 -12 7 -26 0 -22 -4 -25 -34 -25 -86 0 -123 43
-125 148 -2 102 -27 101 -82 -5 -12 -24 -27 -43 -32 -43 -6 0 -7 -3 -4 -7 4
-3 16 2 27 12 24 22 25 14 4 -30 -14 -31 -60 -72 -70 -63 -7 8 27 48 37 43 9
-6 13 8 4 17 -3 3 -63 -52 -133 -121 -80 -80 -162 -150 -222 -190 -52 -35
-108 -76 -123 -90 -40 -36 -74 -108 -86 -177 -28 -170 -72 -421 -76 -431 -3
-10 -136 -13 -617 -13 -337 0 -618 4 -623 8 -6 4 -30 117 -54 251 -57 326 -58
329 -241 452 -193 131 -393 361 -496 569 -85 174 -132 319 -159 495 -21 134
-16 407 10 525 87 398 329 761 659 992 44 31 92 66 105 79 14 12 45 30 70 39
25 10 80 34 121 53 112 52 293 102 435 120 78 10 295 5 383 -8z m2480 -181
c12 -8 22 -22 22 -30 0 -16 -35 -54 -50 -54 -5 0 -19 9 -30 20 -11 11 -20 25
-20 30 0 12 37 50 48 50 4 0 18 -7 30 -16z m280 -10 c21 -14 21 -16 6 -39 -13
-20 -20 -23 -34 -15 -10 6 -30 10 -45 10 -15 0 -23 4 -20 10 3 5 -8 2 -24 -8
-56 -31 -37 -85 39 -107 48 -14 100 -59 111 -95 14 -46 1 -80 -45 -115 -52
-39 -102 -43 -170 -12 -31 14 -56 30 -56 35 0 5 9 17 21 28 18 16 23 16 42 4
12 -7 38 -17 57 -21 77 -17 112 57 48 102 -17 13 -40 24 -49 24 -26 2 -89 53
-100 82 -5 13 -6 35 -3 48 7 30 54 74 90 85 36 11 102 3 132 -16z m-5808 -89
c0 -58 3 -105 8 -105 4 0 27 18 52 40 38 34 52 40 90 40 l45 0 -65 -59 -65
-60 75 -75 74 -76 -45 0 c-43 0 -49 4 -102 60 -31 33 -58 60 -61 60 -3 0 -6
-27 -6 -60 l0 -60 -35 0 -35 0 0 193 c0 107 3 197 7 200 3 4 19 7 35 7 l28 0
0 -105z m5992 18 c3 -38 3 -38 51 -41 43 -3 48 -5 45 -25 -2 -18 -11 -23 -48
-27 l-45 -5 1 -73 c1 -40 4 -76 7 -79 3 -3 21 -8 39 -12 26 -5 34 -12 36 -32
3 -23 0 -26 -35 -27 -38 -2 -80 19 -98 47 -5 9 -12 52 -15 96 l-5 80 -37 3
c-61 5 -60 48 2 54 29 2 35 7 36 28 1 14 2 31 3 38 0 6 14 12 30 12 27 0 30
-3 33 -37z m-6183 -43 c19 -5 42 -17 52 -26 18 -16 18 -19 3 -35 -18 -20 -39
-16 -27 4 4 8 1 7 -9 -1 -12 -10 -18 -10 -23 -1 -10 15 -72 4 -96 -17 -25 -23
-26 -95 -1 -116 28 -25 69 -30 102 -13 23 12 35 13 50 5 34 -18 22 -42 -33
-65 -48 -20 -80 -19 -125 4 -53 27 -75 58 -80 111 -10 106 82 180 187 150z
m5729 -137 l3 -133 -36 0 -35 0 0 136 0 135 33 -3 32 -3 3 -132z m-6043 -288
c0 -37 -4 -65 -10 -65 -6 0 -10 28 -10 65 0 37 4 65 10 65 6 0 10 -28 10 -65z
m5995 39 c0 -8 5 -14 11 -14 8 0 8 -4 0 -14 -7 -8 -11 -27 -9 -42 2 -15 -2
-29 -8 -31 -7 -2 -9 10 -4 40 3 25 3 54 -2 66 -5 14 -4 20 2 16 6 -3 10 -13
10 -21z m380 7 c0 -9 -6 -11 -17 -6 -43 18 -53 16 -78 -10 -14 -16 -25 -24
-25 -18 0 5 9 19 21 31 15 17 30 22 60 20 25 -2 39 -8 39 -17z m450 15 c0 -11
-19 -15 -25 -6 -3 5 1 10 9 10 9 0 16 -2 16 -4z m-7046 -71 c1 -30 -2 -55 -6
-55 -5 0 -8 28 -8 62 0 34 3 58 7 55 3 -4 7 -32 7 -62z m6763 45 c1 -11 -2
-20 -8 -20 -10 0 -12 23 -2 33 9 9 9 10 10 -13z m66 -92 c8 -5 6 -8 -5 -8 -16
0 -18 9 -16 63 l2 62 3 -55 c3 -30 10 -58 16 -62z m-6887 67 c-4 -36 -11 -39
-14 -5 -1 17 2 30 7 30 5 0 8 -11 7 -25z m402 9 c5 3 7 -7 4 -22 -3 -17 -7
-21 -10 -12 -3 8 -12 24 -21 35 -15 18 -15 19 1 6 9 -7 21 -10 26 -7z m64 -44
c2 -24 -1 -40 -7 -40 -7 0 -9 14 -7 35 3 21 -1 43 -9 53 -13 15 -12 16 2 4 10
-7 19 -31 21 -52z m128 5 c0 -38 -2 -42 -24 -42 -23 0 -23 0 -5 18 20 20 16
46 -10 66 -13 9 -11 10 12 6 24 -5 27 -9 27 -48z m6183 15 c3 -11 1 -20 -4
-20 -5 0 -9 7 -9 16 0 9 -8 23 -17 31 -16 13 -16 13 3 4 12 -6 24 -20 27 -31z
m314 -12 c-2 -13 -4 -5 -4 17 -1 22 1 32 4 23 2 -10 2 -28 0 -40z m133 22 c0
-15 -5 -12 -26 11 -19 22 -19 22 4 10 12 -6 22 -16 22 -21z m-7107 0 c3 -11 3
-20 1 -20 -2 0 -8 9 -14 20 -6 11 -7 20 -2 20 6 0 12 -9 15 -20z m57 0 c-6
-11 -12 -20 -14 -20 -2 0 -2 9 1 20 3 11 9 20 15 20 5 0 4 -9 -2 -20z m170 6
c-14 -14 -13 -49 2 -64 9 -9 7 -12 -11 -12 -12 0 -20 4 -17 8 3 5 6 24 8 44 1
21 7 35 15 35 9 0 10 -4 3 -11z m190 10 c0 -2 -7 -7 -16 -10 -8 -3 -12 -2 -9
4 6 10 25 14 25 6z m115 -6 c-3 -5 -11 -10 -16 -10 -6 0 -7 5 -4 10 3 6 11 10
16 10 6 0 7 -4 4 -10z m67 -17 c-3 -17 -7 -22 -10 -13 -3 8 -9 21 -15 28 -7 9
-4 12 10 12 17 0 19 -5 15 -27z m118 12 c19 -22 8 -25 -12 -3 -10 10 -14 18
-9 18 5 0 14 -7 21 -15z m44 1 c-3 -9 5 -18 23 -24 15 -6 22 -11 15 -11 -22
-2 -52 19 -52 34 0 8 4 15 10 15 5 0 7 -6 4 -14z m5476 -7 c15 -27 -11 -69
-43 -68 -20 1 -20 2 -2 6 20 5 45 30 45 44 0 4 -7 15 -16 23 -8 9 -11 16 -5
16 6 0 15 -9 21 -21z m623 -13 c9 21 16 33 16 26 1 -7 -6 -27 -15 -44 -9 -17
-14 -39 -11 -49 3 -12 0 -19 -9 -19 -7 0 -11 6 -8 14 3 7 -2 30 -10 51 -22 51
-19 70 3 21 l17 -40 17 40z m182 -11 c0 -25 -5 -45 -10 -45 -6 0 -9 19 -7 45
5 58 18 58 17 0z m125 0 c0 -18 6 -36 13 -38 6 -3 3 -6 -8 -6 -17 -1 -20 5
-20 43 0 24 3 42 8 39 4 -2 7 -19 7 -38z m-6520 10 c0 -8 -4 -15 -10 -15 -5 0
-10 7 -10 15 0 8 5 15 10 15 6 0 10 -7 10 -15z m5645 -12 l7 -28 14 28 c21 40
23 33 5 -23 -15 -46 -35 -73 -24 -31 3 10 -3 33 -11 50 -9 17 -12 31 -7 31 5
0 12 -12 16 -27z m-5903 -8 c3 -13 1 -22 -3 -19 -9 5 -13 44 -5 44 2 0 6 -11
8 -25z m6153 -2 c1 -12 -1 -21 -4 -20 -3 0 -16 -3 -29 -7 -33 -11 -69 0 -83
27 l-12 22 25 -22 c27 -25 57 -30 76 -11 18 18 15 26 -15 31 -22 4 -20 4 6 3
28 -1 35 -5 36 -23z m55 9 c-8 -3 -18 -10 -22 -16 -5 -6 -8 -2 -8 11 0 17 4
20 22 15 16 -4 18 -7 8 -10z m510 -17 c0 -17 -5 -25 -17 -24 -11 0 -13 3 -5 6
6 2 12 13 12 24 0 10 2 19 5 19 3 0 5 -11 5 -25z m-7076 -23 c-8 -40 -19 -41
-19 -3 0 16 3 27 8 24 4 -2 7 1 7 8 0 7 2 10 5 7 3 -3 2 -19 -1 -36z m-141 14
c4 -10 1 -13 -8 -9 -8 3 -12 9 -9 14 7 12 11 11 17 -5z m401 -1 c3 -9 0 -15
-9 -15 -9 0 -12 6 -9 15 4 8 7 15 9 15 2 0 5 -7 9 -15z m242 0 c9 -8 11 -15 6
-15 -5 0 -15 7 -22 15 -7 8 -9 15 -6 15 4 0 14 -7 22 -15z m63 -12 c-1 -16 -3
-21 -6 -11 -3 11 -10 15 -21 11 -13 -4 -12 -2 3 10 26 21 25 21 24 -10z m91
10 c11 3 20 1 20 -4 0 -16 -47 -10 -61 9 -13 15 -12 16 3 3 10 -7 27 -11 38
-8z m-850 3 c0 -2 -7 -7 -16 -10 -8 -3 -12 -2 -9 4 6 10 25 14 25 6z m6805 -6
c-3 -5 -18 -9 -33 -9 l-27 1 30 8 c17 4 31 8 33 9 2 0 0 -3 -3 -9z m340 0 c3
-5 1 -10 -4 -10 -6 0 -11 5 -11 10 0 6 2 10 4 10 3 0 8 -4 11 -10z m-6188 -6
c-3 -3 -12 -4 -19 -1 -8 3 -5 6 6 6 11 1 17 -2 13 -5z m-241 -41 c-6 -6 -36 9
-36 18 0 5 9 4 20 -3 10 -7 18 -14 16 -15z m487 -1408 c0 -6 -7 -11 -16 -11
-16 -2 -16 -1 -1 3 14 4 15 7 3 15 -11 7 -11 9 -1 6 8 -2 14 -8 15 -13z m4737
-90 c0 -58 3 -105 6 -105 3 0 29 20 57 45 45 39 58 45 97 45 l45 0 -70 -64
-70 -65 73 -70 c39 -39 72 -73 72 -76 0 -3 -17 -5 -38 -5 -33 0 -45 8 -97 60
-33 33 -63 60 -67 60 -4 0 -8 -27 -8 -60 l0 -60 -35 0 -35 0 0 193 c0 107 3
197 7 200 3 4 19 7 35 7 l28 0 0 -105z m-4533 79 c-3 -3 -12 -4 -19 -1 -8 3
-5 6 6 6 11 1 17 -2 13 -5z m-187 -14 c-8 -5 -19 -10 -25 -10 -5 0 -3 5 5 10
8 5 20 10 25 10 6 0 3 -5 -5 -10z m132 -4 c7 4 8 2 4 -5 -9 -13 -26 -5 -25 12
0 9 2 8 6 -1 2 -6 10 -9 15 -6z m-28 -31 c-4 -8 -11 -12 -16 -9 -6 4 -5 10 3
15 19 12 19 11 13 -6z m4161 -88 c41 -40 45 -48 45 -91 0 -84 -49 -137 -134
-143 -98 -8 -172 60 -163 150 7 78 67 127 154 127 48 0 56 -3 98 -43z m301 22
c19 -11 34 -22 34 -24 0 -3 -9 -13 -21 -24 -21 -19 -22 -19 -51 -1 -79 48
-159 -60 -93 -125 28 -29 79 -33 106 -9 17 15 20 15 44 0 14 -9 25 -20 25 -24
0 -5 -17 -18 -39 -30 -110 -62 -249 25 -227 143 18 94 139 146 222 94z m-4452
-25 c3 -8 2 -12 -4 -9 -6 3 -10 10 -10 16 0 14 7 11 14 -7z m-8 -169 c-1 -13
-6 -28 -10 -32 -5 -4 -6 -3 -2 4 3 6 2 15 -4 18 -8 5 -7 11 1 21 15 19 16 18
15 -11z m3654 -164 c0 -4 -16 -5 -35 -3 -19 2 -42 -1 -50 -8 -18 -15 -20 -61
-3 -78 8 -8 8 -12 1 -12 -6 0 -16 14 -22 31 -10 28 -8 34 17 59 22 21 34 26
60 22 18 -2 32 -7 32 -11z m228 -53 c-1 -61 -1 -61 -7 -18 -4 25 -5 53 -3 63
8 34 12 16 10 -45z m234 2 c2 -38 -1 -60 -8 -60 -6 0 -10 24 -10 60 1 78 13
78 18 0z m-287 30 c3 -5 1 -10 -4 -10 -6 0 -11 5 -11 10 0 6 2 10 4 10 3 0 8
-4 11 -10z m-365 -19 c-5 -11 -15 -32 -20 -47 -12 -30 -24 -24 -34 16 l-7 25
14 -23 13 -23 12 26 c7 15 10 31 7 36 -4 5 1 9 10 9 12 0 14 -4 5 -19z m252 7
c-17 -17 -15 -26 6 -31 13 -4 11 -5 -5 -6 -16 -1 -23 5 -23 17 0 21 8 32 24
32 6 0 5 -5 -2 -12z m52 3 c4 -5 -3 -7 -14 -4 -23 6 -26 13 -6 13 8 0 17 -4
20 -9z m176 0 c0 -5 5 -22 11 -38 8 -22 12 -24 19 -13 14 21 12 3 -1 -22 -11
-20 -13 -18 -26 23 -9 24 -20 47 -27 51 -7 5 -5 8 7 8 9 0 17 -4 17 -9z m60 2
c0 -5 -5 -15 -10 -23 -7 -12 -9 -10 -7 8 1 19 17 33 17 15z m170 -13 c0 -11
-2 -20 -4 -20 -2 0 -6 9 -9 20 -3 11 -1 20 4 20 5 0 9 -9 9 -20z m58 -21 c2
-18 9 -37 15 -41 8 -5 4 -8 -8 -8 -18 0 -20 5 -17 36 3 24 0 40 -9 46 -12 8
-11 9 1 5 9 -2 16 -18 18 -38z m62 12 c0 -16 3 -36 6 -45 3 -9 1 -16 -5 -16
-6 0 -11 17 -11 39 0 22 -5 42 -12 44 -8 3 -6 6 5 6 12 1 17 -7 17 -28z m53 9
c-10 -11 -19 -20 -21 -20 -1 0 2 9 8 20 6 11 15 20 20 20 6 0 2 -9 -7 -20z
m82 -26 c0 -46 -2 -49 -24 -35 -9 6 -10 11 -2 15 15 10 14 32 -3 49 -13 13
-12 15 7 15 19 0 22 -6 22 -44z m48 28 c-10 -10 -20 -17 -22 -16 -6 5 20 34
30 34 5 0 1 -8 -8 -18z m73 -24 c-1 -42 -2 -43 -35 -46 -34 -2 -61 12 -61 32
0 6 7 3 15 -7 20 -27 59 -19 63 13 7 61 18 66 18 8z m124 6 c0 -8 -9 -14 -22
-13 -17 1 -19 2 -5 6 20 5 22 14 5 33 -11 12 -10 12 5 1 9 -7 17 -20 17 -27z
m36 16 c0 -11 -4 -20 -8 -20 -4 0 -8 9 -8 20 0 11 4 20 8 20 4 0 8 -9 8 -20z
m-87 -58 c13 -2 28 2 33 10 8 10 9 10 5 -2 -6 -23 -50 -24 -71 -1 -13 14 -16
26 -10 43 8 21 9 20 14 -12 4 -27 10 -36 29 -38z m-797 24 c2 -19 0 -32 -4
-30 -8 5 -12 64 -4 64 2 0 6 -15 8 -34z m-199 17 c-7 -2 -19 -2 -25 0 -7 3 -2
5 12 5 14 0 19 -2 13 -5z m37 -17 c0 -17 -43 -39 -66 -33 -14 3 -13 5 7 6 31
1 49 18 42 39 -4 10 -2 13 5 8 7 -4 12 -13 12 -20z m1085 -12 c0 -13 -8 -19
-25 -21 -22 -1 -22 -1 -2 4 23 5 30 27 12 36 -6 3 -5 4 2 3 7 -2 13 -11 13
-22z m-572 -4 c4 -16 0 -20 -16 -19 -12 0 -16 3 -9 6 6 2 12 11 12 19 0 20 7
17 13 -6z m197 -10 c7 0 11 -3 7 -6 -10 -10 -45 6 -52 23 -5 15 -4 15 13 0 10
-9 25 -17 32 -17z m-625 2 c13 3 22 1 19 -3 -9 -15 -51 -10 -65 9 -13 15 -12
16 3 3 10 -7 29 -11 43 -9z m-315 -32 c0 -5 -8 -10 -17 -10 -15 0 -16 2 -3 10
19 12 20 12 20 0z m533 -7 c-7 -2 -19 -2 -25 0 -7 3 -2 5 12 5 14 0 19 -2 13
-5z m-868 -953 l0 -145 -91 -3 c-76 -2 -95 -6 -109 -22 -27 -30 -7 -67 40 -76
l35 -6 0 -164 c0 -90 4 -164 9 -164 5 0 14 7 21 15 8 9 30 15 59 15 l46 0 -65
-60 -65 -59 75 -76 74 -75 -41 0 c-33 0 -49 7 -75 30 l-33 31 -5 -48 c-7 -62
-41 -116 -87 -138 -32 -15 -68 -18 -262 -17 -124 1 -234 -1 -244 -4 -30 -9
-41 -42 -22 -70 l15 -24 202 0 201 0 -6 -47 c-4 -37 -12 -54 -36 -75 l-31 -28
-370 0 -370 0 -31 28 c-23 21 -32 39 -36 72 -4 39 -2 46 18 55 33 15 42 48 18
74 -15 16 -31 20 -67 20 -66 -2 -92 8 -129 48 -49 53 -52 92 -45 551 l2 112
519 0 c301 0 530 4 544 9 30 12 42 43 27 71 -10 20 -19 20 -613 22 l-602 3 -3
134 c-1 74 0 141 2 148 4 11 148 13 768 11 l763 -3 0 -145z m1935 -432 c11
-12 20 -25 20 -28 0 -10 -40 -50 -50 -50 -12 0 -50 37 -50 48 0 12 39 52 50
52 5 0 18 -10 30 -22z m272 -4 c28 -14 28 -15 11 -37 -16 -22 -20 -22 -62 -11
-54 14 -84 2 -89 -38 -4 -29 4 -35 78 -68 64 -29 88 -50 102 -91 23 -67 -54
-149 -138 -149 -34 0 -103 30 -121 52 -11 12 -9 18 7 33 20 18 22 18 51 1 35
-21 93 -24 115 -5 9 7 14 25 12 43 -3 27 -11 35 -68 62 -105 50 -135 96 -104
156 23 43 36 55 75 67 39 11 91 5 131 -15z m-5804 -97 c1 -59 6 -107 10 -107
4 0 21 15 38 34 30 32 33 33 50 18 17 -16 17 -16 5 0 -19 26 -5 38 46 38 45 0
46 0 26 -17 -103 -90 -106 -94 -92 -119 7 -13 16 -24 21 -24 5 0 6 -5 3 -10
-4 -6 -2 -9 3 -8 5 2 31 -18 57 -44 l48 -48 -41 0 c-35 0 -46 7 -100 60 -33
33 -62 60 -65 60 -3 0 -7 -26 -9 -57 -3 -57 -3 -58 -35 -61 l-33 -3 1 193 c1
170 3 194 18 199 42 16 46 7 49 -104z m5994 26 c3 -38 3 -38 51 -41 42 -3 47
-6 47 -27 0 -21 -5 -24 -47 -27 l-48 -3 1 -67 c1 -89 6 -98 49 -98 34 0 36 -2
33 -27 -4 -35 -41 -42 -91 -18 -47 22 -60 52 -61 137 l-1 73 -37 3 c-32 3 -38
7 -38 27 0 20 6 24 38 27 35 3 37 5 40 41 3 33 6 37 32 37 26 0 29 -4 32 -37z
m-6496 -48 c20 -8 33 -19 29 -25 -4 -6 1 -7 11 -3 12 4 15 3 10 -5 -4 -7 -2
-12 4 -12 19 0 42 -71 36 -109 -6 -37 -45 -84 -90 -108 -36 -19 -105 -10 -137
17 -12 11 -25 20 -29 20 -8 0 -25 41 -35 83 -10 46 27 111 78 136 51 24 77 26
123 6z m318 5 c8 0 26 -10 41 -22 l27 -21 -23 -18 c-20 -15 -27 -16 -49 -4
-26 13 -102 16 -94 4 2 -3 -5 -15 -15 -26 -21 -22 -18 -77 6 -105 23 -26 68
-32 104 -14 33 16 74 6 66 -17 -6 -20 -52 -47 -87 -53 -44 -7 -121 22 -99 38
10 7 8 8 -8 3 -18 -5 -27 0 -43 27 -23 37 -27 109 -7 130 6 8 17 23 23 33 7
11 19 19 28 19 9 -1 13 2 11 7 -6 9 73 29 93 23 8 -2 19 -4 26 -4z m5723 -124
c0 -66 -1 -125 -4 -133 -3 -7 -18 -13 -33 -13 l-29 0 -3 119 c-4 153 -4 153
35 149 l32 -3 2 -119z m333 -253 c0 -16 -3 -16 -34 -2 -21 10 -30 9 -52 -6
-22 -14 -25 -22 -21 -51 4 -20 2 -32 -4 -29 -11 7 -12 55 -1 71 20 31 112 44
112 17z m170 -19 c0 -8 -8 -14 -17 -13 -10 0 -13 3 -6 5 7 3 9 12 6 21 -4 11
-2 14 5 9 7 -4 12 -14 12 -22z m-525 2 c25 6 65 -24 65 -49 0 -21 -36 -49 -57
-44 -15 4 -14 5 4 6 44 2 53 63 12 76 -29 9 -50 -13 -47 -48 2 -17 -1 -32 -7
-34 -6 -2 -9 19 -6 54 2 32 6 52 8 46 3 -8 14 -11 28 -7z m575 -1 c0 -8 -4
-15 -10 -15 -5 0 -7 7 -4 15 4 8 8 15 10 15 2 0 4 -7 4 -15z m-2575 -8 c-11
-9 -15 -19 -10 -28 6 -11 5 -12 -5 -2 -11 10 -11 15 0 28 7 8 17 15 23 15 6 0
3 -6 -8 -13z m-3837 -33 c-3 -14 -5 -12 -10 9 -3 19 -2 25 4 19 6 -6 8 -18 6
-28z m71 33 c-2 -1 -13 -9 -24 -17 -19 -14 -19 -14 -6 3 7 9 18 17 24 17 6 0
8 -1 6 -3z m61 -43 c0 -35 -3 -42 -16 -37 -9 3 -12 9 -7 12 13 9 14 30 4 50
-7 13 -6 18 5 18 10 0 14 -12 14 -43z m117 9 c-3 -10 -5 -4 -5 12 0 17 2 24 5
18 2 -7 2 -21 0 -30z m123 22 c7 -9 8 -15 2 -15 -5 0 -12 7 -16 15 -3 8 -4 15
-2 15 2 0 9 -7 16 -15z m3420 -21 c0 -8 -5 -14 -11 -14 -5 0 -7 5 -4 10 4 6 1
19 -7 28 -12 15 -11 16 5 3 9 -7 17 -20 17 -27z m2183 -28 c-10 -31 -20 -56
-23 -56 -13 0 -3 56 13 72 9 10 17 26 17 35 0 9 3 14 6 11 3 -4 -3 -31 -13
-62z m332 54 c3 -5 1 -10 -4 -10 -6 0 -11 5 -11 10 0 6 2 10 4 10 3 0 8 -4 11
-10z m-6133 -27 c-3 -18 1 -30 13 -40 11 -7 14 -13 9 -13 -26 0 -46 54 -27 73
10 11 11 9 5 -20z m6062 13 c-3 -8 2 -16 13 -19 14 -4 14 -5 -4 -6 -22 -1 -31
18 -16 32 10 11 13 8 7 -7z m189 -58 c8 -5 6 -8 -5 -8 -14 0 -18 8 -17 38 2
34 2 34 6 7 3 -16 10 -33 16 -37z m-231 35 c5 -29 -71 -59 -86 -34 -3 4 6 6
19 3 24 -4 55 12 55 29 0 4 -12 10 -27 12 -27 4 -26 4 4 6 23 1 32 -4 35 -16z
m128 7 c0 -5 -10 -10 -22 -9 -22 0 -22 1 -3 9 11 5 21 9 23 9 1 1 2 -3 2 -9z
m-5865 -25 c0 -10 -6 -19 -13 -21 -7 -1 -8 0 -2 3 5 2 10 11 10 18 0 7 -5 16
-10 18 -6 3 -5 4 2 3 7 -2 13 -11 13 -21z m3272 18 c-25 -4 -27 -6 -15 -21 12
-15 11 -16 -4 -3 -27 20 -22 31 15 30 31 -2 31 -2 4 -6z m140 -24 c1 -19 1
-20 -4 -4 -3 11 -10 24 -17 28 -7 6 -6 7 4 4 8 -2 16 -14 17 -28z m-3993 -4
c3 -8 1 -15 -4 -15 -6 0 -10 7 -10 15 0 8 2 15 4 15 2 0 6 -7 10 -15z m66 0
c0 -8 -4 -15 -10 -15 -5 0 -7 7 -4 15 4 8 8 15 10 15 2 0 4 -7 4 -15z m57 -7
c-3 -8 -6 -5 -6 6 -1 11 2 17 5 13 3 -3 4 -12 1 -19z m54 5 c13 -16 12 -17 -3
-4 -17 13 -22 21 -14 21 2 0 10 -8 17 -17z m199 -8 c0 -14 -4 -25 -9 -25 -4 0
-6 11 -3 25 2 14 6 25 8 25 2 0 4 -11 4 -25z m75 -3 c-3 -3 -11 0 -18 7 -9 10
-8 11 6 5 10 -3 15 -9 12 -12z m90 8 c3 -5 1 -10 -4 -10 -6 0 -11 5 -11 10 0
6 2 10 4 10 3 0 8 -4 11 -10z m3355 0 c-8 -5 -22 -9 -30 -9 -10 0 -8 3 5 9 27
12 43 12 25 0z m-118 -32 c-8 -8 -9 -4 -5 13 4 13 8 18 11 10 2 -7 -1 -18 -6
-23z m2615 26 c-3 -3 -12 -4 -19 -1 -8 3 -5 6 6 6 11 1 17 -2 13 -5z m-2129
-1449 c18 -20 20 -30 12 -45 -13 -24 -52 -26 -74 -4 -21 21 -20 29 6 54 28 25
30 25 56 -5z"/>
<path d="M3977 8924 c-15 -16 -5 -24 29 -24 24 0 34 4 32 13 -5 13 -50 22 -61
11z"/>
<path d="M4919 7181 c-14 -11 -21 -31 -24 -66 -2 -28 -9 -89 -16 -136 l-12
-85 -72 -27 c-39 -15 -75 -27 -79 -27 -4 0 -51 35 -104 79 -53 43 -105 81
-116 85 -14 5 -34 -9 -80 -54 -190 -187 -246 -247 -246 -263 0 -10 36 -64 80
-120 44 -56 80 -106 80 -112 0 -5 -13 -41 -28 -80 l-29 -70 -130 -15 c-73 -9
-138 -21 -147 -29 -14 -12 -16 -42 -16 -226 0 -167 3 -215 14 -224 11 -9 214
-41 264 -41 12 0 33 -41 62 -121 l13 -37 -81 -103 c-45 -57 -82 -113 -82 -124
0 -28 288 -315 317 -315 11 0 66 36 121 80 55 44 104 80 108 80 11 0 138 -51
146 -59 4 -3 14 -64 23 -136 9 -71 21 -135 27 -142 8 -10 63 -13 229 -13 198
0 219 2 227 18 6 9 16 72 23 139 7 68 15 126 18 131 7 9 131 62 147 62 6 0 55
-36 110 -80 58 -46 109 -79 122 -80 17 0 58 35 145 124 150 152 167 172 167
198 0 11 -33 62 -73 112 -40 50 -76 96 -80 102 -4 6 7 45 24 87 l30 75 112 11
c139 15 173 25 181 54 3 12 6 109 6 215 0 172 -2 194 -18 210 -14 14 -48 21
-149 32 l-130 13 -32 78 -32 79 74 92 c90 113 101 132 88 156 -11 21 -295 302
-305 302 -21 0 -141 -88 -159 -117 -4 -7 -13 -13 -19 -13 -7 0 -22 -9 -34 -21
-17 -16 -28 -19 -46 -13 -12 4 -25 8 -28 9 -3 0 -19 9 -37 18 -18 9 -39 17
-47 17 -18 0 -18 3 -40 160 -10 67 -23 121 -31 129 -11 12 -56 15 -215 16
-172 2 -204 0 -221 -14z m352 -667 c142 -42 253 -136 316 -270 33 -69 37 -87
41 -178 7 -163 -35 -276 -142 -381 -198 -195 -504 -193 -700 3 -259 258 -155
701 192 819 82 28 211 31 293 7z"/>
<path d="M6786 5199 c-20 -16 -26 -29 -26 -58 0 -49 32 -81 83 -81 50 0 77 28
77 80 0 72 -75 106 -134 59z"/>
<path d="M4825 2833 c-18 -17 -19 -37 -5 -64 10 -17 22 -19 115 -19 93 0 105
2 115 19 17 33 12 61 -14 71 -40 15 -195 10 -211 -7z"/>
<path d="M2419 3233 c-13 -16 -12 -17 4 -4 16 13 21 21 13 21 -2 0 -10 -8 -17
-17z"/>
<path d="M1695 3198 c-43 -25 -58 -75 -35 -118 15 -28 71 -43 106 -29 16 7 31
12 34 11 3 0 6 21 8 47 2 34 -2 54 -15 69 -22 27 -71 37 -98 20z"/>
<path d="M8537 7267 c-55 -13 -80 -67 -56 -120 16 -36 54 -50 96 -36 58 19 73
98 25 140 -24 22 -32 24 -65 16z"/>
<path d="M1700 7263 c-40 -17 -59 -69 -41 -115 20 -53 125 -55 145 -3 11 30 6
73 -11 94 -19 22 -67 35 -93 24z"/>
<path d="M8514 3199 c-22 -11 -44 -48 -44 -74 0 -27 22 -63 46 -74 55 -25 114
15 114 78 0 57 -65 96 -116 70z"/>
<path d="M3948 1303 c7 -3 16 -2 19 1 4 3 -2 6 -13 5 -11 0 -14 -3 -6 -6z"/>
</g>
</svg>
